<svg xmlns="http://www.w3.org/2000/svg" xmlns:xlink="http://www.w3.org/1999/xlink" viewBox="0,0,256,256" width="24px" height="24px"><g fill="#ffffff" fill-rule="nonzero" stroke="none" stroke-width="1" stroke-linecap="butt" stroke-linejoin="miter" stroke-miterlimit="10" stroke-dasharray="" stroke-dashoffset="0" font-family="none" font-weight="none" font-size="none" text-anchor="none" style="mix-blend-mode: normal"><g transform="scale(5.12,5.12)"><path d="M42,21h-34c-1.654,0 -3,1.346 -3,3v23c0,1.654 1.346,3 3,3h34c1.654,0 3,-1.346 3,-3v-23c0,-1.654 -1.346,-3 -3,-3zM13,38c-1.105,0 -2,-0.895 -2,-2c0,-1.105 0.895,-2 2,-2c1.105,0 2,0.895 2,2c0,1.105 -0.895,2 -2,2zM21,38c-1.105,0 -2,-0.895 -2,-2c0,-1.105 0.895,-2 2,-2c1.105,0 2,0.895 2,2c0,1.105 -0.895,2 -2,2zM29,38c-1.105,0 -2,-0.895 -2,-2c0,-1.105 0.895,-2 2,-2c1.105,0 2,0.895 2,2c0,1.105 -0.895,2 -2,2zM37,38c-1.105,0 -2,-0.895 -2,-2c0,-1.105 0.895,-2 2,-2c1.105,0 2,0.895 2,2c0,1.105 -0.895,2 -2,2zM12,19v-4.01c0,-7.163 5.827,-12.99 12.99,-12.99h0.02c7.163,0 12.99,5.827 12.99,12.99v4.01h-2v-4.01c0,-6.06 -4.931,-10.99 -10.99,-10.99h-0.02c-6.059,0 -10.99,4.93 -10.99,10.99v4.01z"></path></g></g></svg>